{
	"asset":{
		"generator":"Khronos glTF Blender I/O v3.6.27",
		"version":"2.0"
	},
	"extensionsUsed":[
		"KHR_lights_punctual"
	],
	"extensionsRequired":[
		"KHR_lights_punctual"
	],
	"extensions":{
		"KHR_lights_punctual":{
			"lights":[
				{
					"color":[
						1,
						0.7014369368553162,
						0.3638243079185486
					],
					"intensity":49.99999825656414,
					"type":"directional",
					"name":"Sun"
				}
			]
		}
	},
	"scene":0,
	"scenes":[
		{
			"name":"Scene",
			"nodes":[
				0,
				1,
				2,
				3,
				4,
				5,
				6,
				7,
				8
			]
		}
	],
	"nodes":[
		{
			"mesh":0,
			"name":"Object_6"
		},
		{
			"mesh":1,
			"name":"Object_7"
		},
		{
			"mesh":2,
			"name":"Object_9"
		},
		{
			"mesh":3,
			"name":"Object_10"
		},
		{
			"mesh":4,
			"name":"Object_11"
		},
		{
			"mesh":5,
			"name":"Object_12"
		},
		{
			"camera":0,
			"name":"Camera",
			"rotation":[
				0.06947269290685654,
				-0.2606615722179413,
				0.011345748789608479,
				0.9628605246543884
			],
			"translation":[
				-1.2349263429641724,
				0.4453459680080414,
				2.929582357406616
			]
		},
		{
			"mesh":6,
			"name":"Circle"
		},
		{
			"extensions":{
				"KHR_lights_punctual":{
					"light":0
				}
			},
			"name":"Sun",
			"rotation":[
				-0.5551877021789551,
				0.4760778248310089,
				-0.31263092160224915,
				0.6061174869537354
			],
			"translation":[
				2.0671825408935547,
				0.49396929144859314,
				0.04848721623420715
			]
		}
	],
	"cameras":[
		{
			"name":"Camera.001",
			"perspective":{
				"aspectRatio":1.7777777777777777,
				"yfov":0.6911112070083618,
				"zfar":1000,
				"znear":0.10000000149011612
			},
			"type":"perspective"
		}
	],
	"materials":[
		{
			"doubleSided":true,
			"name":"Aeons",
			"normalTexture":{
				"index":0
			},
			"pbrMetallicRoughness":{
				"baseColorTexture":{
					"index":1
				},
				"metallicRoughnessTexture":{
					"index":2
				}
			}
		},
		{
			"alphaMode":"BLEND",
			"doubleSided":true,
			"emissiveFactor":[
				1,
				1,
				1
			],
			"emissiveTexture":{
				"index":3
			},
			"name":"Glow",
			"pbrMetallicRoughness":{
				"baseColorTexture":{
					"index":4
				},
				"metallicFactor":0
			}
		},
		{
			"doubleSided":true,
			"name":"MASKS",
			"normalTexture":{
				"index":5
			},
			"pbrMetallicRoughness":{
				"baseColorTexture":{
					"index":6
				},
				"metallicRoughnessTexture":{
					"index":7
				}
			}
		},
		{
			"alphaMode":"BLEND",
			"doubleSided":true,
			"name":"LEGS_ARMS",
			"normalTexture":{
				"index":8
			},
			"pbrMetallicRoughness":{
				"baseColorTexture":{
					"index":9
				},
				"metallicRoughnessTexture":{
					"index":10
				}
			}
		},
		{
			"alphaMode":"BLEND",
			"doubleSided":true,
			"name":"TORSO",
			"normalTexture":{
				"index":11
			},
			"pbrMetallicRoughness":{
				"baseColorTexture":{
					"index":12
				},
				"metallicRoughnessTexture":{
					"index":13
				}
			}
		},
		{
			"alphaMode":"BLEND",
			"doubleSided":true,
			"name":"CLOAK",
			"normalTexture":{
				"index":14
			},
			"pbrMetallicRoughness":{
				"baseColorTexture":{
					"index":15
				},
				"metallicRoughnessTexture":{
					"index":16
				}
			}
		}
	],
	"meshes":[
		{
			"name":"polySurface1168_Aeons_0",
			"primitives":[
				{
					"attributes":{
						"POSITION":0,
						"NORMAL":1,
						"TEXCOORD_0":2,
						"TANGENT":3
					},
					"indices":4,
					"material":0
				}
			]
		},
		{
			"name":"polySurface1168_Glow_0",
			"primitives":[
				{
					"attributes":{
						"POSITION":5,
						"NORMAL":6,
						"TEXCOORD_0":7,
						"TEXCOORD_1":8,
						"TANGENT":9
					},
					"indices":10,
					"material":1
				}
			]
		},
		{
			"name":"polySurface1103_MASKS_0",
			"primitives":[
				{
					"attributes":{
						"POSITION":11,
						"NORMAL":12,
						"TEXCOORD_0":13,
						"TEXCOORD_1":14,
						"TEXCOORD_2":15,
						"TANGENT":16
					},
					"indices":17,
					"material":2
				}
			]
		},
		{
			"name":"polySurface1103_LEGS_ARMS_0",
			"primitives":[
				{
					"attributes":{
						"POSITION":18,
						"NORMAL":19,
						"TEXCOORD_0":20,
						"TEXCOORD_1":21,
						"TEXCOORD_2":22,
						"TANGENT":23
					},
					"indices":24,
					"material":3
				}
			]
		},
		{
			"name":"polySurface1103_TORSO_0",
			"primitives":[
				{
					"attributes":{
						"POSITION":25,
						"NORMAL":26,
						"TEXCOORD_0":27,
						"TEXCOORD_1":28,
						"TEXCOORD_2":29,
						"TANGENT":30
					},
					"indices":31,
					"material":4
				}
			]
		},
		{
			"name":"polySurface1103_CLOAK_0",
			"primitives":[
				{
					"attributes":{
						"POSITION":32,
						"NORMAL":33,
						"TEXCOORD_0":34,
						"TEXCOORD_1":35,
						"TEXCOORD_2":36,
						"TANGENT":37
					},
					"indices":38,
					"material":5
				}
			]
		},
		{
			"name":"Circle",
			"primitives":[
				{
					"attributes":{
						"POSITION":39,
						"NORMAL":40,
						"TEXCOORD_0":41,
						"TANGENT":42
					},
					"indices":43
				}
			]
		}
	],
	"textures":[
		{
			"sampler":0,
			"source":0
		},
		{
			"sampler":0,
			"source":1
		},
		{
			"sampler":0,
			"source":2
		},
		{
			"sampler":0,
			"source":3
		},
		{
			"sampler":0,
			"source":4
		},
		{
			"sampler":0,
			"source":5
		},
		{
			"sampler":0,
			"source":6
		},
		{
			"sampler":0,
			"source":7
		},
		{
			"sampler":0,
			"source":8
		},
		{
			"sampler":0,
			"source":9
		},
		{
			"sampler":0,
			"source":10
		},
		{
			"sampler":0,
			"source":11
		},
		{
			"sampler":0,
			"source":12
		},
		{
			"sampler":0,
			"source":13
		},
		{
			"sampler":0,
			"source":14
		},
		{
			"sampler":0,
			"source":15
		},
		{
			"sampler":0,
			"source":16
		}
	],
	"images":[
		{
			"mimeType":"image/png",
			"name":"Aeons_normal",
			"uri":"textures/Aeons_normal.png"
		},
		{
			"mimeType":"image/png",
			"name":"Aeons_baseColor",
			"uri":"textures/Aeons_baseColor.png"
		},
		{
			"mimeType":"image/png",
			"name":"Aeons_metallicRoughness",
			"uri":"textures/Aeons_metallicRoughness.png"
		},
		{
			"mimeType":"image/png",
			"name":"Glow_emissive",
			"uri":"textures/Glow_emissive.png"
		},
		{
			"mimeType":"image/png",
			"name":"Glow_baseColor",
			"uri":"textures/Glow_baseColor.png"
		},
		{
			"mimeType":"image/png",
			"name":"MASKS_normal",
			"uri":"textures/MASKS_normal.png"
		},
		{
			"mimeType":"image/png",
			"name":"MASKS_baseColor",
			"uri":"textures/MASKS_baseColor.png"
		},
		{
			"mimeType":"image/png",
			"name":"MASKS_metallicRoughness",
			"uri":"textures/MASKS_metallicRoughness.png"
		},
		{
			"mimeType":"image/png",
			"name":"LEGS_ARMS_normal",
			"uri":"textures/LEGS_ARMS_normal.png"
		},
		{
			"mimeType":"image/png",
			"name":"LEGS_ARMS_baseColor",
			"uri":"textures/LEGS_ARMS_baseColor.png"
		},
		{
			"mimeType":"image/png",
			"name":"LEGS_ARMS_metallicRoughness",
			"uri":"textures/LEGS_ARMS_metallicRoughness.png"
		},
		{
			"mimeType":"image/png",
			"name":"TORSO_normal",
			"uri":"textures/TORSO_normal.png"
		},
		{
			"mimeType":"image/png",
			"name":"TORSO_baseColor",
			"uri":"textures/TORSO_baseColor.png"
		},
		{
			"mimeType":"image/png",
			"name":"TORSO_metallicRoughness",
			"uri":"textures/TORSO_metallicRoughness.png"
		},
		{
			"mimeType":"image/png",
			"name":"CLOAK_normal",
			"uri":"textures/CLOAK_normal.png"
		},
		{
			"mimeType":"image/png",
			"name":"CLOAK_baseColor",
			"uri":"textures/CLOAK_baseColor.png"
		},
		{
			"mimeType":"image/png",
			"name":"CLOAK_metallicRoughness",
			"uri":"textures/CLOAK_metallicRoughness.png"
		}
	],
	"accessors":[
		{
			"bufferView":0,
			"componentType":5126,
			"count":4607,
			"max":[
				1.0600595474243164,
				1.1894084215164185,
				0.836125910282135
			],
			"min":[
				0.33481162786483765,
				0.6540652513504028,
				-0.5003800392150879
			],
			"type":"VEC3"
		},
		{
			"bufferView":1,
			"componentType":5126,
			"count":4607,
			"type":"VEC3"
		},
		{
			"bufferView":2,
			"componentType":5126,
			"count":4607,
			"type":"VEC2"
		},
		{
			"bufferView":3,
			"componentType":5126,
			"count":4607,
			"type":"VEC4"
		},
		{
			"bufferView":4,
			"componentType":5123,
			"count":23376,
			"type":"SCALAR"
		},
		{
			"bufferView":5,
			"componentType":5126,
			"count":92,
			"max":[
				1.0723934173583984,
				1.0126581192016602,
				0.8596497774124146
			],
			"min":[
				0.5769799947738647,
				0.6439486145973206,
				-0.042527277022600174
			],
			"type":"VEC3"
		},
		{
			"bufferView":6,
			"componentType":5126,
			"count":92,
			"type":"VEC3"
		},
		{
			"bufferView":7,
			"componentType":5126,
			"count":92,
			"type":"VEC2"
		},
		{
			"bufferView":8,
			"componentType":5126,
			"count":92,
			"type":"VEC2"
		},
		{
			"bufferView":9,
			"componentType":5126,
			"count":92,
			"type":"VEC4"
		},
		{
			"bufferView":10,
			"componentType":5123,
			"count":444,
			"type":"SCALAR"
		},
		{
			"bufferView":11,
			"componentType":5126,
			"count":1773,
			"max":[
				0.2306288331747055,
				1.8874537944793701,
				0.21962736546993256
			],
			"min":[
				-0.2511894106864929,
				0.8492016196250916,
				-0.17869718372821808
			],
			"type":"VEC3"
		},
		{
			"bufferView":12,
			"componentType":5126,
			"count":1773,
			"type":"VEC3"
		},
		{
			"bufferView":13,
			"componentType":5126,
			"count":1773,
			"type":"VEC2"
		},
		{
			"bufferView":14,
			"componentType":5126,
			"count":1773,
			"type":"VEC2"
		},
		{
			"bufferView":15,
			"componentType":5126,
			"count":1773,
			"type":"VEC2"
		},
		{
			"bufferView":16,
			"componentType":5126,
			"count":1773,
			"type":"VEC4"
		},
		{
			"bufferView":17,
			"componentType":5123,
			"count":7848,
			"type":"SCALAR"
		},
		{
			"bufferView":18,
			"componentType":5126,
			"count":15866,
			"max":[
				0.5679150223731995,
				1.7135767936706543,
				0.3183426558971405
			],
			"min":[
				-0.4059374928474426,
				-0.003519682679325342,
				-0.5207534432411194
			],
			"type":"VEC3"
		},
		{
			"bufferView":19,
			"componentType":5126,
			"count":15866,
			"type":"VEC3"
		},
		{
			"bufferView":20,
			"componentType":5126,
			"count":15866,
			"type":"VEC2"
		},
		{
			"bufferView":21,
			"componentType":5126,
			"count":15866,
			"type":"VEC2"
		},
		{
			"bufferView":22,
			"componentType":5126,
			"count":15866,
			"type":"VEC2"
		},
		{
			"bufferView":23,
			"componentType":5126,
			"count":15866,
			"type":"VEC4"
		},
		{
			"bufferView":24,
			"componentType":5123,
			"count":52962,
			"type":"SCALAR"
		},
		{
			"bufferView":25,
			"componentType":5126,
			"count":4858,
			"max":[
				0.27843353152275085,
				1.7309961318969727,
				0.15026883780956268
			],
			"min":[
				-0.25000497698783875,
				0.5445902347564697,
				-0.26993584632873535
			],
			"type":"VEC3"
		},
		{
			"bufferView":26,
			"componentType":5126,
			"count":4858,
			"type":"VEC3"
		},
		{
			"bufferView":27,
			"componentType":5126,
			"count":4858,
			"type":"VEC2"
		},
		{
			"bufferView":28,
			"componentType":5126,
			"count":4858,
			"type":"VEC2"
		},
		{
			"bufferView":29,
			"componentType":5126,
			"count":4858,
			"type":"VEC2"
		},
		{
			"bufferView":30,
			"componentType":5126,
			"count":4858,
			"type":"VEC4"
		},
		{
			"bufferView":31,
			"componentType":5123,
			"count":22482,
			"type":"SCALAR"
		},
		{
			"bufferView":32,
			"componentType":5126,
			"count":11905,
			"max":[
				0.3801557719707489,
				2.0123443603515625,
				0.2562656104564667
			],
			"min":[
				-0.32523709535598755,
				1.0085875988006592,
				-0.2551872134208679
			],
			"type":"VEC3"
		},
		{
			"bufferView":33,
			"componentType":5126,
			"count":11905,
			"type":"VEC3"
		},
		{
			"bufferView":34,
			"componentType":5126,
			"count":11905,
			"type":"VEC2"
		},
		{
			"bufferView":35,
			"componentType":5126,
			"count":11905,
			"type":"VEC2"
		},
		{
			"bufferView":36,
			"componentType":5126,
			"count":11905,
			"type":"VEC2"
		},
		{
			"bufferView":37,
			"componentType":5126,
			"count":11905,
			"type":"VEC4"
		},
		{
			"bufferView":38,
			"componentType":5123,
			"count":68922,
			"type":"SCALAR"
		},
		{
			"bufferView":39,
			"componentType":5126,
			"count":64,
			"max":[
				0.49026280641555786,
				0,
				0.49026280641555786
			],
			"min":[
				-0.49026280641555786,
				0,
				-0.49026280641555786
			],
			"type":"VEC3"
		},
		{
			"bufferView":40,
			"componentType":5126,
			"count":64,
			"type":"VEC3"
		},
		{
			"bufferView":41,
			"componentType":5126,
			"count":64,
			"type":"VEC2"
		},
		{
			"bufferView":42,
			"componentType":5126,
			"count":64,
			"type":"VEC4"
		},
		{
			"bufferView":43,
			"componentType":5123,
			"count":186,
			"type":"SCALAR"
		}
	],
	"bufferViews":[
		{
			"buffer":0,
			"byteLength":55284,
			"byteOffset":0,
			"target":34962
		},
		{
			"buffer":0,
			"byteLength":55284,
			"byteOffset":55284,
			"target":34962
		},
		{
			"buffer":0,
			"byteLength":36856,
			"byteOffset":110568,
			"target":34962
		},
		{
			"buffer":0,
			"byteLength":73712,
			"byteOffset":147424,
			"target":34962
		},
		{
			"buffer":0,
			"byteLength":46752,
			"byteOffset":221136,
			"target":34963
		},
		{
			"buffer":0,
			"byteLength":1104,
			"byteOffset":267888,
			"target":34962
		},
		{
			"buffer":0,
			"byteLength":1104,
			"byteOffset":268992,
			"target":34962
		},
		{
			"buffer":0,
			"byteLength":736,
			"byteOffset":270096,
			"target":34962
		},
		{
			"buffer":0,
			"byteLength":736,
			"byteOffset":270832,
			"target":34962
		},
		{
			"buffer":0,
			"byteLength":1472,
			"byteOffset":271568,
			"target":34962
		},
		{
			"buffer":0,
			"byteLength":888,
			"byteOffset":273040,
			"target":34963
		},
		{
			"buffer":0,
			"byteLength":21276,
			"byteOffset":273928,
			"target":34962
		},
		{
			"buffer":0,
			"byteLength":21276,
			"byteOffset":295204,
			"target":34962
		},
		{
			"buffer":0,
			"byteLength":14184,
			"byteOffset":316480,
			"target":34962
		},
		{
			"buffer":0,
			"byteLength":14184,
			"byteOffset":330664,
			"target":34962
		},
		{
			"buffer":0,
			"byteLength":14184,
			"byteOffset":344848,
			"target":34962
		},
		{
			"buffer":0,
			"byteLength":28368,
			"byteOffset":359032,
			"target":34962
		},
		{
			"buffer":0,
			"byteLength":15696,
			"byteOffset":387400,
			"target":34963
		},
		{
			"buffer":0,
			"byteLength":190392,
			"byteOffset":403096,
			"target":34962
		},
		{
			"buffer":0,
			"byteLength":190392,
			"byteOffset":593488,
			"target":34962
		},
		{
			"buffer":0,
			"byteLength":126928,
			"byteOffset":783880,
			"target":34962
		},
		{
			"buffer":0,
			"byteLength":126928,
			"byteOffset":910808,
			"target":34962
		},
		{
			"buffer":0,
			"byteLength":126928,
			"byteOffset":1037736,
			"target":34962
		},
		{
			"buffer":0,
			"byteLength":253856,
			"byteOffset":1164664,
			"target":34962
		},
		{
			"buffer":0,
			"byteLength":105924,
			"byteOffset":1418520,
			"target":34963
		},
		{
			"buffer":0,
			"byteLength":58296,
			"byteOffset":1524444,
			"target":34962
		},
		{
			"buffer":0,
			"byteLength":58296,
			"byteOffset":1582740,
			"target":34962
		},
		{
			"buffer":0,
			"byteLength":38864,
			"byteOffset":1641036,
			"target":34962
		},
		{
			"buffer":0,
			"byteLength":38864,
			"byteOffset":1679900,
			"target":34962
		},
		{
			"buffer":0,
			"byteLength":38864,
			"byteOffset":1718764,
			"target":34962
		},
		{
			"buffer":0,
			"byteLength":77728,
			"byteOffset":1757628,
			"target":34962
		},
		{
			"buffer":0,
			"byteLength":44964,
			"byteOffset":1835356,
			"target":34963
		},
		{
			"buffer":0,
			"byteLength":142860,
			"byteOffset":1880320,
			"target":34962
		},
		{
			"buffer":0,
			"byteLength":142860,
			"byteOffset":2023180,
			"target":34962
		},
		{
			"buffer":0,
			"byteLength":95240,
			"byteOffset":2166040,
			"target":34962
		},
		{
			"buffer":0,
			"byteLength":95240,
			"byteOffset":2261280,
			"target":34962
		},
		{
			"buffer":0,
			"byteLength":95240,
			"byteOffset":2356520,
			"target":34962
		},
		{
			"buffer":0,
			"byteLength":190480,
			"byteOffset":2451760,
			"target":34962
		},
		{
			"buffer":0,
			"byteLength":137844,
			"byteOffset":2642240,
			"target":34963
		},
		{
			"buffer":0,
			"byteLength":768,
			"byteOffset":2780084,
			"target":34962
		},
		{
			"buffer":0,
			"byteLength":768,
			"byteOffset":2780852,
			"target":34962
		},
		{
			"buffer":0,
			"byteLength":512,
			"byteOffset":2781620,
			"target":34962
		},
		{
			"buffer":0,
			"byteLength":1024,
			"byteOffset":2782132,
			"target":34962
		},
		{
			"buffer":0,
			"byteLength":372,
			"byteOffset":2783156,
			"target":34963
		}
	],
	"samplers":[
		{
			"magFilter":9729,
			"minFilter":9987
		}
	],
	"buffers":[
		{
			"byteLength":2783528,
			"uri":"jack-of-blades.bin"
		}
	]
}
