{
	"asset":{
		"generator":"Khronos glTF Blender I/O v3.6.27",
		"version":"2.0"
	},
	"extensionsUsed":[
		"KHR_materials_emissive_strength"
	],
	"scene":0,
	"scenes":[
		{
			"name":"Scene",
			"nodes":[
				0,
				1,
				2,
				3,
				4,
				5
			]
		}
	],
	"nodes":[
		{
			"mesh":0,
			"name":"Cube"
		},
		{
			"mesh":1,
			"name":"Cube.001"
		},
		{
			"mesh":2,
			"name":"Cube.002"
		},
		{
			"mesh":3,
			"name":"Cube.003"
		},
		{
			"camera":0,
			"name":"Camera",
			"rotation":[
				-0.007767579052597284,
				-0.0004360330640338361,
				-5.658166628563777e-06,
				0.9999698400497437
			],
			"translation":[
				0.0066720168106257915,
				2.307513952255249,
				11.751824378967285
			]
		},
		{
			"mesh":4,
			"name":"Sphere",
			"scale":[
				0.5,
				0.5,
				0.5
			],
			"translation":[
				-1.4465680122375488,
				-0.5,
				1.5947457551956177
			]
		}
	],
	"cameras":[
		{
			"name":"Camera.001",
			"perspective":{
				"aspectRatio":1,
				"yfov":0.6911112070083618,
				"zfar":1000,
				"znear":0.10000000149011612
			},
			"type":"perspective"
		}
	],
	"materials":[
		{
			"doubleSided":true,
			"name":"white",
			"pbrMetallicRoughness":{
				"baseColorFactor":[
					0.800000011920929,
					0.800000011920929,
					0.800000011920929,
					1
				],
				"metallicFactor":0,
				"roughnessFactor":0.5
			}
		},
		{
			"doubleSided":true,
			"name":"red",
			"pbrMetallicRoughness":{
				"baseColorFactor":[
					1,
					0.10000002384185791,
					0.10000002384185791,
					1
				],
				"metallicFactor":0,
				"roughnessFactor":0.5
			}
		},
		{
			"doubleSided":true,
			"name":"green",
			"pbrMetallicRoughness":{
				"baseColorFactor":[
					0.10000008344650269,
					1,
					0.10000008344650269,
					1
				],
				"metallicFactor":0,
				"roughnessFactor":0.5
			}
		},
		{
			"doubleSided":true,
			"emissiveFactor":[
				1,
				1,
				1
			],
			"extensions":{
				"KHR_materials_emissive_strength":{
					"emissiveStrength":10
				}
			},
			"name":"light",
			"pbrMetallicRoughness":{
				"baseColorFactor":[
					0.800000011920929,
					0.800000011920929,
					0.800000011920929,
					1
				],
				"metallicFactor":0,
				"roughnessFactor":0.5
			}
		},
		{
			"doubleSided":true,
			"name":"metal",
			"pbrMetallicRoughness":{
				"baseColorFactor":[
					0.800000011920929,
					0.800000011920929,
					0.800000011920929,
					1
				],
				"roughnessFactor":0.17213115096092224
			}
		}
	],
	"meshes":[
		{
			"name":"Cube.001",
			"primitives":[
				{
					"attributes":{
						"POSITION":0,
						"NORMAL":1,
						"TEXCOORD_0":2,
						"TANGENT":3
					},
					"indices":4,
					"material":0
				}
			]
		},
		{
			"name":"Cube.002",
			"primitives":[
				{
					"attributes":{
						"POSITION":5,
						"NORMAL":6,
						"TEXCOORD_0":7,
						"TANGENT":8
					},
					"indices":9,
					"material":0
				}
			]
		},
		{
			"name":"Cube.003",
			"primitives":[
				{
					"attributes":{
						"POSITION":10,
						"NORMAL":11,
						"TEXCOORD_0":12,
						"TANGENT":13
					},
					"indices":14,
					"material":0
				},
				{
					"attributes":{
						"POSITION":15,
						"NORMAL":16,
						"TEXCOORD_0":17,
						"TANGENT":18
					},
					"indices":19,
					"material":1
				},
				{
					"attributes":{
						"POSITION":20,
						"NORMAL":21,
						"TEXCOORD_0":22,
						"TANGENT":23
					},
					"indices":24,
					"material":2
				}
			]
		},
		{
			"name":"Cube.004",
			"primitives":[
				{
					"attributes":{
						"POSITION":25,
						"NORMAL":26,
						"TEXCOORD_0":27,
						"TANGENT":28
					},
					"indices":29,
					"material":3
				}
			]
		},
		{
			"name":"Sphere",
			"primitives":[
				{
					"attributes":{
						"POSITION":30,
						"NORMAL":31,
						"TEXCOORD_0":32,
						"TANGENT":33
					},
					"indices":34,
					"material":4
				}
			]
		}
	],
	"accessors":[
		{
			"bufferView":0,
			"componentType":5126,
			"count":26,
			"max":[
				2.210545539855957,
				1,
				2.6689271926879883
			],
			"min":[
				-0.33191555738449097,
				-1,
				0.12646615505218506
			],
			"type":"VEC3"
		},
		{
			"bufferView":1,
			"componentType":5126,
			"count":26,
			"type":"VEC3"
		},
		{
			"bufferView":2,
			"componentType":5126,
			"count":26,
			"type":"VEC2"
		},
		{
			"bufferView":3,
			"componentType":5126,
			"count":26,
			"type":"VEC4"
		},
		{
			"bufferView":4,
			"componentType":5123,
			"count":36,
			"type":"SCALAR"
		},
		{
			"bufferView":5,
			"componentType":5126,
			"count":26,
			"max":[
				0.08779358863830566,
				3,
				0.11837661266326904
			],
			"min":[
				-2.4300990104675293,
				-1,
				-2.3995161056518555
			],
			"type":"VEC3"
		},
		{
			"bufferView":6,
			"componentType":5126,
			"count":26,
			"type":"VEC3"
		},
		{
			"bufferView":7,
			"componentType":5126,
			"count":26,
			"type":"VEC2"
		},
		{
			"bufferView":8,
			"componentType":5126,
			"count":26,
			"type":"VEC4"
		},
		{
			"bufferView":9,
			"componentType":5123,
			"count":36,
			"type":"SCALAR"
		},
		{
			"bufferView":10,
			"componentType":5126,
			"count":16,
			"max":[
				3.152345895767212,
				5.304691791534424,
				13.859376907348633
			],
			"min":[
				-3.152345895767212,
				-1,
				-3.152345895767212
			],
			"type":"VEC3"
		},
		{
			"bufferView":11,
			"componentType":5126,
			"count":16,
			"type":"VEC3"
		},
		{
			"bufferView":12,
			"componentType":5126,
			"count":16,
			"type":"VEC2"
		},
		{
			"bufferView":13,
			"componentType":5126,
			"count":16,
			"type":"VEC4"
		},
		{
			"bufferView":14,
			"componentType":5123,
			"count":24,
			"type":"SCALAR"
		},
		{
			"bufferView":15,
			"componentType":5126,
			"count":4,
			"max":[
				-3.152345895767212,
				5.304691791534424,
				13.859376907348633
			],
			"min":[
				-3.152345895767212,
				-1,
				-3.152345895767212
			],
			"type":"VEC3"
		},
		{
			"bufferView":16,
			"componentType":5126,
			"count":4,
			"type":"VEC3"
		},
		{
			"bufferView":17,
			"componentType":5126,
			"count":4,
			"type":"VEC2"
		},
		{
			"bufferView":18,
			"componentType":5126,
			"count":4,
			"type":"VEC4"
		},
		{
			"bufferView":19,
			"componentType":5123,
			"count":6,
			"type":"SCALAR"
		},
		{
			"bufferView":20,
			"componentType":5126,
			"count":4,
			"max":[
				3.152345895767212,
				5.304691791534424,
				13.859376907348633
			],
			"min":[
				3.152345895767212,
				-1,
				-3.152345895767212
			],
			"type":"VEC3"
		},
		{
			"bufferView":21,
			"componentType":5126,
			"count":4,
			"type":"VEC3"
		},
		{
			"bufferView":22,
			"componentType":5126,
			"count":4,
			"type":"VEC2"
		},
		{
			"bufferView":23,
			"componentType":5126,
			"count":4,
			"type":"VEC4"
		},
		{
			"bufferView":24,
			"componentType":5123,
			"count":6,
			"type":"SCALAR"
		},
		{
			"bufferView":25,
			"componentType":5126,
			"count":24,
			"max":[
				1,
				5.471763610839844,
				1
			],
			"min":[
				-1,
				5.271763801574707,
				-1
			],
			"type":"VEC3"
		},
		{
			"bufferView":26,
			"componentType":5126,
			"count":24,
			"type":"VEC3"
		},
		{
			"bufferView":27,
			"componentType":5126,
			"count":24,
			"type":"VEC2"
		},
		{
			"bufferView":28,
			"componentType":5126,
			"count":24,
			"type":"VEC4"
		},
		{
			"bufferView":29,
			"componentType":5123,
			"count":36,
			"type":"SCALAR"
		},
		{
			"bufferView":30,
			"componentType":5126,
			"count":559,
			"max":[
				0.9999997019767761,
				1,
				0.9999993443489075
			],
			"min":[
				-0.9999990463256836,
				-1,
				-1
			],
			"type":"VEC3"
		},
		{
			"bufferView":31,
			"componentType":5126,
			"count":559,
			"type":"VEC3"
		},
		{
			"bufferView":32,
			"componentType":5126,
			"count":559,
			"type":"VEC2"
		},
		{
			"bufferView":33,
			"componentType":5126,
			"count":559,
			"type":"VEC4"
		},
		{
			"bufferView":34,
			"componentType":5123,
			"count":2880,
			"type":"SCALAR"
		}
	],
	"bufferViews":[
		{
			"buffer":0,
			"byteLength":312,
			"byteOffset":0,
			"target":34962
		},
		{
			"buffer":0,
			"byteLength":312,
			"byteOffset":312,
			"target":34962
		},
		{
			"buffer":0,
			"byteLength":208,
			"byteOffset":624,
			"target":34962
		},
		{
			"buffer":0,
			"byteLength":416,
			"byteOffset":832,
			"target":34962
		},
		{
			"buffer":0,
			"byteLength":72,
			"byteOffset":1248,
			"target":34963
		},
		{
			"buffer":0,
			"byteLength":312,
			"byteOffset":1320,
			"target":34962
		},
		{
			"buffer":0,
			"byteLength":312,
			"byteOffset":1632,
			"target":34962
		},
		{
			"buffer":0,
			"byteLength":208,
			"byteOffset":1944,
			"target":34962
		},
		{
			"buffer":0,
			"byteLength":416,
			"byteOffset":2152,
			"target":34962
		},
		{
			"buffer":0,
			"byteLength":72,
			"byteOffset":2568,
			"target":34963
		},
		{
			"buffer":0,
			"byteLength":192,
			"byteOffset":2640,
			"target":34962
		},
		{
			"buffer":0,
			"byteLength":192,
			"byteOffset":2832,
			"target":34962
		},
		{
			"buffer":0,
			"byteLength":128,
			"byteOffset":3024,
			"target":34962
		},
		{
			"buffer":0,
			"byteLength":256,
			"byteOffset":3152,
			"target":34962
		},
		{
			"buffer":0,
			"byteLength":48,
			"byteOffset":3408,
			"target":34963
		},
		{
			"buffer":0,
			"byteLength":48,
			"byteOffset":3456,
			"target":34962
		},
		{
			"buffer":0,
			"byteLength":48,
			"byteOffset":3504,
			"target":34962
		},
		{
			"buffer":0,
			"byteLength":32,
			"byteOffset":3552,
			"target":34962
		},
		{
			"buffer":0,
			"byteLength":64,
			"byteOffset":3584,
			"target":34962
		},
		{
			"buffer":0,
			"byteLength":12,
			"byteOffset":3648,
			"target":34963
		},
		{
			"buffer":0,
			"byteLength":48,
			"byteOffset":3660,
			"target":34962
		},
		{
			"buffer":0,
			"byteLength":48,
			"byteOffset":3708,
			"target":34962
		},
		{
			"buffer":0,
			"byteLength":32,
			"byteOffset":3756,
			"target":34962
		},
		{
			"buffer":0,
			"byteLength":64,
			"byteOffset":3788,
			"target":34962
		},
		{
			"buffer":0,
			"byteLength":12,
			"byteOffset":3852,
			"target":34963
		},
		{
			"buffer":0,
			"byteLength":288,
			"byteOffset":3864,
			"target":34962
		},
		{
			"buffer":0,
			"byteLength":288,
			"byteOffset":4152,
			"target":34962
		},
		{
			"buffer":0,
			"byteLength":192,
			"byteOffset":4440,
			"target":34962
		},
		{
			"buffer":0,
			"byteLength":384,
			"byteOffset":4632,
			"target":34962
		},
		{
			"buffer":0,
			"byteLength":72,
			"byteOffset":5016,
			"target":34963
		},
		{
			"buffer":0,
			"byteLength":6708,
			"byteOffset":5088,
			"target":34962
		},
		{
			"buffer":0,
			"byteLength":6708,
			"byteOffset":11796,
			"target":34962
		},
		{
			"buffer":0,
			"byteLength":4472,
			"byteOffset":18504,
			"target":34962
		},
		{
			"buffer":0,
			"byteLength":8944,
			"byteOffset":22976,
			"target":34962
		},
		{
			"buffer":0,
			"byteLength":5760,
			"byteOffset":31920,
			"target":34963
		}
	],
	"buffers":[
		{
			"byteLength":37680,
			"uri":"cornell.bin"
		}
	]
}
